<svg xmlns="http://www.w3.org/2000/svg" width="102" height="91" version="1.1">
 <g id="layer1" transform="translate(-123.912 -241.567)">
  <path d="m 211.09565,287.55863 c 4.66567,0.9586 9.79791,5.83874 8.39821,11.32889 -1.58632,5.83873 -7.65169,10.98031 -14.55689,10.98031 -13.90369,0 -17.54292,-20.74059 -25.56786,-20.74059 -1.77296,0 -3.5459,1.30719 -3.5459,2.61436 -1.95959,7.84307 18.47604,15.33758 15.58332,28.58366 -1.39969,6.10016 -7.37175,11.24174 -14.55688,11.24174 -4.94561,0 -9.23803,-3.57295 -9.98454,-9.2374 -0.46656,0 -0.46656,0 -0.46656,0 -2.79939,5.66445 -8.30489,9.2374 -13.53045,9.2374 -6.53192,0 -11.01096,-5.14158 -9.42463,-11.24174 2.98602,-12.54893 26.87424,-20.13056 28.6472,-28.58366 0.27994,-1.30717 -0.74651,-2.61436 -2.51947,-2.61436 -8.3982,0 -21.74202,20.74059 -34.99251,20.74059 -6.62525,0 -10.73104,-5.14158 -9.42464,-11.3289 1.30638,-6.10016 7.93162,-9.76027 13.43711,-10.71887 0.0933,-0.52287 0.0933,-0.52287 0.0933,-0.52287 -4.94561,-1.22003 -9.98453,-6.10016 -8.3982,-11.59031 1.58632,-6.01304 8.02495,-10.80603 14.55689,-10.80603 13.90369,0 17.44961,20.74058 25.84781,20.74058 1.58633,0 3.17265,-1.30718 3.63922,-2.7015 1.49302,-7.75594 -18.94262,-15.68615 -15.9566,-28.49651 1.3997,-6.10017 7.37177,-11.24174 14.55689,-11.24174 4.94562,0 9.51798,4.61869 9.7046,9.93456 0.46656,0 0.46656,0 0.46656,0 2.14621,-5.14157 8.58484,-9.93456 13.81038,-9.93456 6.43863,0 10.82436,5.14157 9.42464,11.24174 -2.79939,11.76461 -26.40767,19.86913 -28.74051,28.32222 -0.37326,1.48147 0.74651,2.87579 2.61278,2.87579 8.49151,0 21.64869,-20.74058 34.89918,-20.74058 7.09182,0 10.91768,5.14158 9.51797,11.24174 -1.30639,6.01303 -7.93164,9.93457 -13.43713,10.89317 z" id="path2991" style="fill:#2da343;fill-rule:evenodd"/>
 </g>
</svg>
